<svg width="100%" height="100%" xmlns="http://www.w3.org/2000/svg" data-name="Layer 1" viewBox="0 0 24 24"><path fill="none" stroke="#000000" stroke-miterlimit="10" stroke-width="1.5" d="M12 12h10.5a10.45 10.45 0 0 1-3.07 7.42L12 12V1.48a10.5 10.5 0 1 0 7.43 17.92"/><path fill="none" stroke="#000000" stroke-miterlimit="10" stroke-width="1.5" d="M15.82 8.16h3.34a1.43 1.43 0 0 0 1.43-1.43 1.43 1.43 0 0 0-1.43-1.43h-1a1.44 1.44 0 0 1-1.43-1.44 1.43 1.43 0 0 1 1.47-1.43h3.35M18.68.52v1.91m0 5.73v1.91"/></svg>